<svg width="83" height="83" viewBox="0 0 83 83" fill="none" xmlns="http://www.w3.org/2000/svg">
<g opacity="0.2" clip-path="url(#clip0)">
<path d="M41.1 0C51.1 0 61.1 0 71.1 0C79.4 0 82.3 2.9 82.3 11C82.3 27.6 82.3 44.3 82.3 60.9C82.3 69.1 79.5 72.2 71.3 72.1C67.3 72 67.2 73.8 67.2 76.9C67.3 82.9 66.9 83.4 62.2 79.9C58 76.9 54.9 78.2 51.6 80.6C48.4 82.8 46.9 81.9 47.6 78.2C48.5 72.9 46.2 71.9 41.4 72.1C31.1 72.5 20.8 72.3 10.4 72.2C3.1 72.3 0.1 69.2 0 61.9C0 44.8 0 27.6 0 10.5C0 2.9 3 0.1 10.7 0C20.8 0 31 0 41.1 0ZM44.4 59.5C44.6 60 44.9 60.4 45.1 60.9C49.1 66.5 54.7 68.7 61 67.3C66.8 65.9 71.6 60.7 72.4 54.8C73.3 48.2 70.6 43 64.6 39.6C58.8 36.1 51.7 36.9 46.8 41.6C41.9 46.3 40.9 53.5 44.4 59.5ZM73.4 41.5C74.8 50.6 76.4 59.7 67.9 66.8C67 67.6 66.8 69.5 69 70.2C74.8 72 80.2 68.5 80.2 62.6C80.3 45.2 80.3 27.7 80.2 10.3C80.2 4.2 77.7 2.2 71.4 2.6C50.5 2.4 29.6 2.3 8.7 2.3C4.5 2.3 2.3 4.8 2.3 9C2.2 14.8 2.2 20.6 2.3 26.4C2.5 38.3 1.7 50.3 2.8 62.2C2.5 67.9 4.4 70.1 10.1 70.2C21.4 70.3 32.7 70.3 44 70.2C45.2 70.2 46.9 70.7 47.4 69C47.9 67.4 46.7 66.3 45.8 65.1C43.8 62.4 40.2 64.3 38.2 62.2C40.9 61.4 42.2 60.8 41 57C37.5 46.1 46 35.3 57.4 35.1C63.2 35 67.4 38 71.5 41.4C72 41.4 72.7 41.5 73.4 41.5ZM49.6 68.4C49.6 70.8 49.7 73 49.6 75.1C49.3 78.5 50.3 79.5 53.3 77.4C55.7 75.7 58.1 74.8 60.9 77C64.3 79.8 65.7 78.7 65.2 74.4C65.1 73.1 65.2 71.8 65.2 70.4C65.2 69 64.7 68.1 63.1 68.7C58.7 70.4 54.4 69.4 49.6 68.4Z" fill="#415A87"/>
<path d="M40.6 81.7998C34.8 81.7998 29 81.7998 23.3 81.7998C23.3 81.4998 23.3 81.0998 23.3 80.7998C29.1 80.7998 34.9 80.7998 40.6 80.7998C40.6 81.0998 40.6 81.3998 40.6 81.7998Z" fill="#415A87"/>
<path d="M9.7 75.5996C15 75.5996 20.3 75.5996 25.6 75.5996C25.6 75.9996 25.6 76.2996 25.6 76.6996C20.2 76.6996 14.9 76.6996 9.5 76.6996C9.5 76.2996 9.6 75.9996 9.7 75.5996Z" fill="#415A87"/>
<path d="M72.4 10.9002C72.7 8.00023 72.5 5.20023 71.4 2.50023C77.6 2.10023 80.1 4.10023 80.2 10.2002C80.3 27.6002 80.3 45.1002 80.2 62.5002C80.2 68.5002 74.7 71.9002 69 70.1002C66.8 69.4002 66.9 67.4002 67.9 66.7002C76.5 59.7002 74.8 50.6002 73.4 41.4002C73.4 33.7002 73.4 26.1002 73.4 18.4002C73.8 15.9002 73.3 13.4002 72.4 10.9002Z" fill="#92C4F6"/>
<path d="M2.69997 62.2002C5.49997 62.3002 8.19998 62.3002 11 62.4002C14.4 63.9002 18 63.6002 21.6 63.4002C22.9 63.4002 24.2 63.4002 25.5 63.4002C29.7 63.2002 34 64.8002 38.1 62.5002L38.2 62.3002C40.3 64.4002 43.9 62.5002 45.8 65.2002C46.7 66.4002 47.9 67.4002 47.4 69.1002C46.8 70.8002 45.2 70.3002 44 70.3002C32.7 70.3002 21.4 70.4002 10.1 70.3002C4.29997 70.1002 2.29997 67.8002 2.69997 62.2002Z" fill="#92C4F6"/>
<path d="M46.4001 53.2997C42.9001 54.4997 45.2001 57.4997 44.4001 59.4997C40.9001 53.3997 41.8001 46.1997 46.8001 41.3997C51.6001 36.6997 58.8001 35.8997 64.6001 39.3997C62.1001 39.8997 59.3001 38.4997 57.1001 40.5997L57.0001 40.4997C54.3001 40.6997 51.9001 41.3997 50.5001 43.9997C49.7001 44.1997 49.2001 44.6997 49.0001 45.4997C46.7001 46.9997 45.6001 49.0997 45.8001 51.7997C46.0001 52.3997 46.2001 52.8997 46.4001 53.2997Z" fill="#92C4F6"/>
<path d="M73.3 18.5C73.3 26.2 73.3 33.8 73.3 41.5C72.6 41.5 72 41.5 71.3 41.5C71.3 33.8 71.4 26.2 71.4 18.5C72.1 18.5 72.7 18.5 73.3 18.5Z" fill="#385381"/>
<path d="M44.4 59.5C44.6 60 44.9 60.4 45.1 60.9C44.9 60.4 44.7 59.9 44.4 59.5Z" fill="#92C4F6"/>
<path d="M17.5 48.6002C17.5 50.4002 17.5 52.2002 17.5 54.0002C15.9 54.8002 16.9 55.6002 17.5 56.4002C17.6 57.9002 17.6 59.5002 17.7 61.0002C12.2 61.5002 10.9 60.5002 10.8 55.4002C10.7 42.6002 10.9 29.8002 10.7 17.0002C10.7 12.5002 12.5 10.7002 17 10.7002C33 10.8002 49 10.7002 64.9 10.8002C70.5 10.8002 71.5 12.0002 71 17.7002C69.2999 17.7002 67.5 17.6002 65.8 17.6002C65.1 16.3002 63.8999 16.4002 62.7999 16.4002C48.3999 16.4002 33.9 16.4002 19.5 16.3002C14.8 16.3002 17.1 18.8002 17.6 20.8002C17.6 24.3002 17.5 27.8002 17.5 31.3002C16.2 32.0002 16.3 32.8002 17.5 33.6002C15.9 41.2002 22.7 37.2002 25.8 39.6002C23.1 42.0002 15.2 38.8002 17.6 46.3002C16.3 47.0002 16.3 47.8002 17.5 48.6002Z" fill="#92C4F6"/>
<path d="M71 17.7004C71.5 12.0004 70.5 10.8004 64.9 10.8004C48.9 10.8004 32.9 10.9004 17 10.7004C12.5 10.7004 10.7 12.5004 10.7 17.0004C10.8 29.8004 10.7 42.6004 10.8 55.4004C10.8 60.5004 12.1 61.5004 17.7 61.0004C23 61.1004 28.3 61.2004 33.5 61.4004C35 61.5004 36.8 60.5004 38 62.3004C34 64.6004 29.6 63.0004 25.4 63.2004C24.1 62.0004 22.8 62.0004 21.5 63.2004C17.9 63.5004 14.3 63.7004 10.9 62.2004C9.09997 60.0004 8.59998 57.6004 8.59998 54.8004C8.69998 42.2004 8.59998 29.5004 8.69998 16.9004C8.69998 10.6004 10.8 8.50039 17.1 8.50039C33.1 8.50039 49 8.50039 65 8.40039C67.8 8.40039 70.3 8.90039 72.4 10.7004C73.3 13.2004 73.9 15.7004 73.4 18.3004C72.8 18.3004 72.1 18.3004 71.5 18.3004C71.2 18.3004 71.1 18.0004 71 17.7004Z" fill="#415A87"/>
<path d="M17.6 20.7998C17.1 18.7998 14.8 16.2998 19.5 16.2998C33.9 16.3998 48.4 16.2998 62.8 16.3998C63.9 16.3998 65.2 16.2998 65.8 17.5998C64.4 20.1998 63.7 23.2998 61.4 25.3998C61.1 24.7998 60.8 24.1998 60.4 23.5998C63 18.4998 63 18.3998 57.4 18.3998C55.1 18.3998 52.8 18.4998 50.4 18.4998C40.2 18.4998 30 18.4998 19.3 18.4998C20.2 20.3998 20.8 21.8998 21.4 23.3998C21.4 24.0998 21.4 24.7998 21.4 25.4998C18.8 25.0998 19.3 22.0998 17.6 20.7998Z" fill="#415A87"/>
<path d="M21.5 25.6C21.5 24.9 21.5 24.2 21.5 23.5C22.2 23.7 22.9 23.8 23.6 24C23.9 24 24.2 24 24.5 24C33.2 23.8 41.8 23.7 50.5 23.5C51.2 23.7 51.9 23.8 52.6 24C52.6 24.6 52.6 25.1 52.6 25.7C42.1 25.6 31.8 25.6 21.5 25.6Z" fill="#385381"/>
<path d="M17.5 56.3998C17 55.5998 16 54.7998 17.5 53.9998C20.6 55.0998 23.6 54.6998 26.8 53.8998C30.1 52.9998 33.5 52.0998 36.6 55.0998C30 53.7998 24 58.0998 17.5 56.3998Z" fill="#415A87"/>
<path d="M17.5 48.5998C16.3 47.7998 16.3 47.0998 17.5 46.2998C24.4 46.2998 31.2 46.2998 38.1 46.2998C38.1 46.8998 38.1 47.3998 38.1 47.9998C31.3 48.9998 24.4 47.9998 17.5 48.5998Z" fill="#385381"/>
<path d="M42.1 39.7004C37.9 41.1004 33.6 41.1004 29.3 39.8004C33.5 38.3004 37.8 38.7004 42.1 39.7004Z" fill="#415A87"/>
<path d="M17.5 33.5002C16.4 32.7002 16.3 32.0002 17.5 31.2002C22.7 31.2002 27.8 31.2002 33 31.2002C33 31.7002 33 32.2002 33.1 32.7002C28 34.2002 22.6 32.9002 17.5 33.5002Z" fill="#385381"/>
<path d="M36.8 32.6997C40.9 30.9997 47.6 31.0997 51.1 32.6997C46.4 33.6997 41.6 33.3997 36.8 32.6997Z" fill="#385381"/>
<path d="M60.5 23.5996C60.8 24.1996 61.1 24.7996 61.5 25.3996C58.9 26.1996 56.2 25.7996 53.5 25.5996C53.5 24.9996 53.5 24.4996 53.5 23.8996C55.8 23.7996 58.2 23.6996 60.5 23.5996Z" fill="#385381"/>
<path d="M53.5 23.9004C53.5 24.5004 53.5 25.0004 53.5 25.6004C53.2 25.6004 52.8 25.6004 52.5 25.6004C52.5 25.0004 52.5 24.5004 52.5 23.9004C52.8 23.9004 53.1 23.9004 53.5 23.9004Z" fill="#415A87"/>
<path d="M21.5 63.3004C22.8 62.1004 24.1 62.1004 25.4 63.3004C24.1 63.3004 22.8 63.3004 21.5 63.3004Z" fill="#385381"/>
<path d="M49 45.5996C49.2 44.7996 49.7 44.2996 50.5 44.0996C55 47.1996 55.6 43.1996 57 40.5996L57.1 40.6996C59.3 42.3996 59.9 47.2996 64.4 44.1996C64.6 44.0996 65.1 44.5996 65.5 44.7996C62.4 48.8996 68.9 52.2996 67.9 52.8996C64.9 54.7996 64 56.3996 65.5 59.4996C65.6 59.6996 65.1 60.1996 64.8 60.5996C60.7 57.1996 58.6 64.1996 56.6 62.7996C54.6 61.3996 53.9 58.8996 50.5 60.4996C48.8 61.2996 48.7 59.4996 49.3 58.3996C51.3 54.7996 48.6 54.1996 46.3 53.2996C46.1 52.7996 45.8 52.2996 45.6 51.8996C48.4 50.5996 52.1 49.7996 49 45.5996ZM57.1 45.5996C56.4 45.5996 50.3 51.6996 50.6 52.3996C51.9 55.2996 53.9 57.6996 57.1 58.5996C58.5 58.9996 64 53.4996 63.7 52.1996C62.8 48.9996 60.4 46.8996 57.1 45.5996Z" fill="#385381"/>
<path d="M57.1 40.5C55.7 43.1 55.1 47.2 50.6 44C51.9 41.4 54.4 40.7 57.1 40.5Z" fill="#D2E5F6"/>
<path d="M50.4 23.5C50.4 21.9 50.5 20.2 50.5 18.6C52.8 18.6 55.1 18.5 57.5 18.5C63.1 18.5 63.1 18.5 60.5 23.7C58.2 23.8 55.8 23.9 53.5 24C53.2 24 52.8 24 52.5 24C51.8 23.8 51.1 23.6 50.4 23.5Z" fill="#92C4F6"/>
<path d="M23.5 23.9996C23.8 23.7996 24.1 23.7996 24.4 23.9996C24.1 23.9996 23.8 23.9996 23.5 23.9996Z" fill="#415A87"/>
<path d="M57.1 45.5996C60.4 46.8996 62.7 48.8996 63.6 52.1996C64 53.4996 58.4 58.9996 57 58.5996C53.8 57.6996 51.8 55.2996 50.5 52.3996C50.3 51.6996 56.4 45.5996 57.1 45.5996Z" fill="#D2E5F6"/>
</g>
<defs>
<clipPath id="clip0">
<rect width="82.3" height="82.2" fill="white"/>
</clipPath>
</defs>
</svg>
