<svg width="82" height="83" viewBox="0 0 82 83" fill="none" xmlns="http://www.w3.org/2000/svg">
<g opacity="0.2" clip-path="url(#clip0)">
<path d="M58.7001 73.0002C60.5 71.2001 62.4 69.7002 65.2 69.9002C68.6 70.1002 70.1 68.2001 70 65.0002C69.9 61.8002 71.3 59.7001 74.4 58.6002C77.5 57.5002 78.2001 55.1002 76.9 52.2002C75.6 49.3002 76.2 46.7001 78.5 44.6002C81 42.3002 80.8 40.0002 78.4 37.8002C76.8 36.4002 76.1001 34.6002 76.3 32.5002C76.4 31.5002 76.5 30.1002 77.6 30.2002C79.4 30.4002 78 32.1002 78.5 33.0002C78.5 33.3002 78.3 33.8002 78.4 34.0002C82.4 38.6002 84.1 43.2001 78.6 48.1002C77.7 48.9002 78.3 50.6002 78.9 51.9002C80.5 55.8002 79.5 58.9002 75.6 60.5002C73 61.5002 72.2 63.1002 72.1 65.8002C72 69.9002 69.7001 72.3001 65.4 72.1002C62.9 72.0002 61.4001 73.1002 60.5 75.4002C58.8 79.1002 56 80.7001 52 79.0002C49.5 77.9002 47.7001 78.3001 45.7001 80.2001C42.7001 83.2001 39.4001 83.1002 36.5 80.1002C34.5 78.1002 32.7001 78.0002 30.2001 79.0002C26.5 80.6002 23.6 79.2001 22.1 75.6002C21 73.0002 19.3 71.8002 16.4 71.9002C12.7 72.0002 10.4 69.7001 10.4 66.0002C10.4 63.1002 9.50005 61.3002 6.80005 60.2002C3.10005 58.7002 1.90005 55.7001 3.40005 52.1002C4.40005 49.6002 4.20005 47.8002 2.30005 45.8002C-0.699951 42.8002 -0.699951 39.6002 2.30005 36.6002C4.00005 34.9002 4.70005 33.2002 3.60005 30.8002C1.70005 26.8002 3.00005 23.6002 7.10005 22.0002C9.50005 21.1002 10.3 19.5002 10.3 17.0002C10.3 12.8002 12.5 10.5002 16.8 10.5002C19.3 10.5002 20.9 9.60015 21.9 7.30015C23.6 3.10015 26.5 1.80015 30.7001 3.60015C33 4.60015 34.8 4.20015 36.5 2.40015C39.5 -0.699846 42.7001 -0.699847 45.7001 2.30015C47.6001 4.30015 49.6 4.50015 52 3.50015C55.7001 2.00015 58.7001 3.20015 60.2001 6.80015C61.3 9.50015 62.9 10.6002 65.9 10.6002C69.7001 10.5002 72.1 12.8002 72 16.4002C71.9 20.6002 74.2 21.9002 77.5 22.9002C77.8 23.2002 78.1 23.5002 78.4 23.7002C78.5 24.3002 78.6001 25.0002 78.8 25.6002C74.2001 24.2002 69.7 22.9002 70.1 16.5002C70.3 14.0002 68.4 12.5002 65.9 12.6002C62.3 12.7002 59.9 11.2002 58.6 7.90015C57.5 5.10015 55.4 4.30015 52.6 5.60015C49.7 6.90015 47.1001 6.60015 44.9001 4.20015C42.7001 1.80015 40.4 1.60015 38.1 4.00015C35.9 6.40015 33.3 7.00015 30.4 5.60015C27.1 4.20015 25 4.90015 23.8 8.00015C22.7 11.1002 20.3 12.2002 17.5 13.0002C13.9 12.0002 12.4 13.9002 12.4 17.1002C12.4 20.3002 11.1 22.6002 8.10005 23.7002C4.80005 24.9002 4.30005 27.3002 5.50005 30.1002C6.70005 33.1002 6.20005 35.6002 3.80005 37.8002C1.60005 39.9002 1.40005 42.2002 3.60005 44.3002C6.10005 46.7002 6.70005 49.2002 5.30005 52.4002C4.10005 55.2002 5.00005 57.4002 7.80005 58.5002C11.2 59.7002 12.3 62.1002 12.2 65.5002C12.2 68.3002 13.7 70.0002 16.5 69.8002C20.2001 69.7002 22.4 71.3001 23.8 74.6002C25 77.4002 27.1 78.2002 29.9 76.8002C32.7001 75.4002 35.2001 76.0002 37.2001 78.0002C40 80.9002 42.2001 80.4002 44.8 77.8002C46.7001 75.9002 49.1001 75.3001 51.7001 76.6002C55.9001 78.6002 57.9001 76.9002 58.7001 73.0002Z" fill="#385381"/>
<path d="M17.2 78.6002C17 80.6002 16 82.1002 13.8 82.2002C11.7 82.3002 10.3 81.2002 10.1 79.0002C9.90005 76.8002 11.2 75.5002 13.3 75.3002C15.6 75.1002 16.7 76.5002 17.2 78.6002Z" fill="#415A87"/>
<path d="M10.9 7.09976C10.7 9.19976 9.79996 10.6998 7.59996 10.7998C5.39996 10.9998 4.09996 9.79976 3.89996 7.59976C3.79996 5.49976 4.99996 4.09976 7.09996 3.89976C9.29996 3.69976 10.4 5.19976 10.9 7.09976Z" fill="#415A87"/>
<path d="M7.19995 71.3002C6.79995 73.3002 5.79995 74.8002 3.59995 74.8002C1.49995 74.8002 0.199951 73.5002 0.199951 71.3002C0.199951 69.1002 1.49995 67.9002 3.69995 67.9002C5.79995 67.8002 6.79995 69.3002 7.19995 71.3002Z" fill="#385381"/>
<path d="M58.6999 73.0005C57.8999 76.9005 55.8999 78.6005 51.9999 76.7005C49.3999 75.4005 46.9999 76.0005 45.0999 77.9005C42.4999 80.5005 40.1999 81.0005 37.4999 78.1005C35.4999 76.0005 32.9999 75.5005 30.1999 76.9005C27.4999 78.3005 25.2999 77.6005 24.0999 74.7005C22.6999 71.4005 20.4999 69.7005 16.7999 69.9005C13.8999 70.0005 12.3999 68.3005 12.4999 65.6005C12.4999 62.2005 11.3999 59.9005 8.09994 58.6005C5.19994 57.6005 4.39994 55.3005 5.59994 52.5005C6.99994 49.3005 6.39994 46.7005 3.89994 44.4005C1.59994 42.3005 1.89994 40.0005 4.09994 37.9005C6.39994 35.7005 6.99994 33.2005 5.79994 30.2005C4.59994 27.3005 5.19994 25.0005 8.39994 23.8005C11.3999 22.7005 12.6999 20.4005 12.6999 17.2005C12.6999 14.0005 14.1999 12.1005 17.7999 13.1005C17.3999 18.1005 13.7999 22.4005 14.6999 27.7005C12.0999 33.8005 10.6999 40.0005 11.9999 46.6005C15.0999 61.7005 25.9999 70.2005 43.6999 71.2005C48.3999 72.8005 53.5999 72.6005 58.6999 73.0005Z" fill="#92C4F6"/>
<path d="M43.5 71.2C25.8 70.1 14.9 61.7 11.8 46.6C10.4 40 11.9 33.8 14.5 27.7C25.9 7.90003 48 8.10003 59.7 17.9C69.1 25.7 72.9 35.8 70.1 47.7C67.5 59.4 60 66.9 48.3 70.1C46.7 70.5 45.1 70.8 43.5 71.2ZM21.3 37.9C12.6 37.3 12.1 37.7 13.8 46.3C14.4 49.4 15.2 52.4 17.1 55C17.6 55.9 18.1 56.7 18.6 57.6C19.9 60.1 22.3 60.4 24.6 59.8C27.1 59.1 25.9 56.8 26 55.1C26.2 50.8 25.8 46.5 26.1 42.2C26.5 38.1 24.8 37.1 21.3 37.9ZM48.2 58.6C51.2 58.6 56.2 53.2 55.9 49.9C55.5 44.8 55.4 39.8 56.3 34.8C57.2 34.9 58.2 35.2 58.2 36.1C58.1 41.4 58.9 46.9 57.5 51.8C54.9 61 54.3 60.7 44.6 60.9C37.6 61 30.6 60.1 23.7 62.4C33.1 71 46.9 71.4 57.4 63.3C66.6 58.3 73.2 42.1 65.6 28.1C58.8 15.7 43.9 10.3 31.1 15.8C23.2 18.3 18.5 24 15.3 31.2C13.9 34.3 13.8 36.1 18.2 35.7C21.5 35.4 24.8 35.8 28.1 35.8C28.5 36.2 28.9 36.6 29.4 37.1C26.9 43.7 28.7 50.6 28.3 57.3C28.2 59.3 30.1 58.9 31.3 58.9C36.9 58.7 42.5 58.6 48.2 58.6Z" fill="#385381"/>
<path d="M57.4 63.2005C58.5 58.9005 61.4 55.3005 62.4 50.9005C66.3 33.5005 52.9 16.1005 35 15.8005C33.7 15.8005 32.3 15.7005 31 15.7005C43.7 10.2005 58.7 15.6005 65.5 28.0005C73.2 42.0005 66.5 58.3005 57.4 63.2005Z" fill="#92C4F6"/>
<path d="M21.2999 37.9003C24.7999 37.1003 26.5 38.1003 26.2 42.1003C25.9 46.4003 26.2 50.7003 26.1 55.0003C26 56.6003 27.3 59.0003 24.7 59.7003C22.4 60.3003 20 60.1003 18.7 57.5003C18.2 56.6003 17.7 55.8003 17.2 54.9003C20.5 55.3003 21.4999 53.9003 21.4 50.7003C21.1999 46.4003 21.2999 42.1003 21.2999 37.9003Z" fill="#92C4F6"/>
<path d="M48.2 58.6002C47.8 54.1002 52.2 50.9002 51.3 46.1002C50.7 42.6002 51.2 38.9002 51.2 35.3002C52.9 35.1002 54.6 35.0002 56.3 34.8002V34.7002C55.4 39.7002 55.5 44.8002 55.9 49.8002C56.2 53.2002 51.2 58.5002 48.2 58.6002Z" fill="#92C4F6"/>
<path d="M39.1 21.0999C37.6 20.5999 35.9 20.1999 36.3 22.6999C37.4 29.1999 33.6 33.1999 29.3 36.9999C28.9 36.5999 28.5 36.1999 28 35.6999C31.8 31.7999 35.2 27.9999 34.3 21.7999C33.8 18.7999 36.5 17.8999 39.2 19.7999C39.2 20.2999 39.2 20.6999 39.1 21.0999Z" fill="#415A87"/>
<path d="M39.1 21.1004C39.2 20.7004 39.2 20.3004 39.3 19.8004C40.6 19.3004 41.6 19.7004 42.1 20.9004C42.7 22.5004 43.5 24.1004 43.5 26.0004C43.3 33.7004 43.4 33.6004 51.1 33.7004C52.8 33.7004 55 32.2004 56.4 34.6004C54.7 34.8004 53 34.9004 51.3 35.1004C48.3 35.0004 45 35.7004 42.4 34.6004C38.7 33.0004 42.7 29.4004 41.5 26.7004C40.6 25.0004 40.6 22.8004 39.1 21.1004Z" fill="#385381"/>
</g>
<defs>
<clipPath id="clip0">
<rect width="82" height="82.4" fill="white"/>
</clipPath>
</defs>
</svg>
