<svg width="74" height="74" viewBox="0 0 74 74" fill="none" xmlns="http://www.w3.org/2000/svg">
<g opacity="0.2" clip-path="url(#clip0)">
<path d="M0.721072 9.35115C1.89281 9.26124 3.06456 9.08141 4.32643 9.08141C10.7259 8.99149 10.8161 8.99149 11.0865 2.87728C11.1766 0.809235 11.8076 0 13.9708 0C29.2936 0.0899149 44.6163 0.0899149 59.849 0C62.9135 0 63.0037 1.88821 62.6431 3.86634C61.9221 8.27217 63.5445 9.53098 67.8709 9.26124C74.3605 8.81166 74.4507 9.26124 73.3691 15.6452C72.4677 20.9502 71.0256 26.1652 68.3216 30.9307C63.8149 38.8433 57.145 43.7886 47.8612 44.5079C45.067 44.6877 44.0755 45.497 44.7966 48.2843C45.067 49.4532 44.8867 50.6221 44.9769 51.8809C45.067 54.938 45.6979 57.4557 49.6638 57.0061C51.2862 56.8262 52.8185 56.9162 52.0975 59.3439C52.0975 59.8834 52.0975 60.4228 52.0975 61.0522C52.0975 61.6817 52.1876 62.3111 52.1876 62.9405C50.7454 64.8287 49.2132 64.7388 47.5006 63.39C50.2046 63.6598 50.3849 61.9514 50.1145 60.0632C49.5737 56.8262 47.1401 58.7145 45.5177 58.4447C44.3459 58.4447 43.1742 58.4447 42.0926 58.3548C41.8222 58.175 41.5518 58.175 41.2814 58.3548C38.5774 58.3548 35.7832 58.3548 33.0792 58.3548C32.8088 58.175 32.5384 58.175 32.268 58.3548C30.285 58.3548 28.3922 58.2649 26.4093 58.2649C21.7223 58.2649 21.542 58.6245 23.2546 63.39C23.2546 63.9295 23.2546 64.469 23.2546 64.9186C22.6236 64.9186 22.0828 64.9186 21.4519 64.9186C21.4519 64.2892 21.3618 63.6598 21.3618 63.0304C19.7393 57.3657 23.6151 56.5565 27.6711 55.9271C28.3021 56.8262 29.2034 56.9162 30.1949 56.6464C33.3496 56.5565 36.5043 56.3767 39.659 56.2868C43.715 57.096 44.7065 55.2977 43.6249 51.6112C42.1827 46.6659 41.732 41.9903 47.8612 39.6525C48.8526 39.2928 49.5737 38.034 50.3849 37.1349C57.2351 29.3123 59.5786 19.9611 60.4799 9.98056C61.2911 1.34872 62.3727 1.88821 52.8185 2.33779C40.4702 2.06804 28.0317 2.06804 15.6833 1.88821C13.3398 1.88821 12.8892 2.96719 13.0694 4.85541C13.5201 9.26124 13.8806 13.757 14.2412 18.1628C13.7004 18.1628 13.1596 18.1628 12.7089 18.1628C11.0865 10.3402 8.65286 8.90158 1.53228 11.8688C0.991474 11.8688 0.540804 11.8688 0 11.8688C0 11.2394 0 10.6999 0 10.0705C0.270402 9.80073 0.45067 9.6209 0.721072 9.35115ZM47.3204 42.5298C53.0889 42.1701 57.3252 40.192 61.0207 36.955C66.7893 31.9198 69.4933 25.1762 71.0256 17.8931C72.5579 10.3402 72.3776 10.1604 64.5359 10.8797C62.9135 11.0595 62.1925 11.5091 62.0122 13.1276C60.5701 24.3669 56.8746 34.5273 47.3204 42.5298Z" fill="#385381"/>
<path d="M0 11.8691C0.540804 11.8691 0.991474 11.8691 1.53228 11.8691C2.61389 18.1632 3.69549 24.5471 7.03045 30.1219C11.1766 37.1352 17.1255 41.5411 25.8685 42.4402C16.9452 32.2798 14.6918 28.1437 12.7089 18.1632C13.2497 18.1632 13.7905 18.1632 14.2412 18.1632C17.0353 27.874 20.7308 37.0453 30.1949 42.4402C32.0877 43.5192 31.1864 45.3175 31.0962 46.8461C30.8258 50.083 29.2034 53.1401 30.1949 56.377C29.2034 56.6468 28.3021 56.5569 27.6711 55.6577C28.2119 52.2409 30.0146 48.3746 28.8429 45.6772C27.6711 42.9797 22.894 44.4183 19.8295 43.2495C10.5457 39.6529 5.31791 32.6395 2.34348 23.648C1.08161 19.8716 0.090134 15.9153 0 11.8691Z" fill="#415A87"/>
<path d="M47.5907 63.2103C49.3033 64.559 50.9257 64.649 52.2777 62.7607C53.2692 62.8507 54.3508 63.2103 55.2521 63.0305C59.1279 62.491 59.7588 64.4691 59.0378 67.6161C57.5055 67.4363 59.4884 64.8288 57.3252 65.1884C55.2521 65.1884 53.1791 65.0985 51.106 65.0985C41.8222 65.0086 32.4482 64.9187 23.1644 64.8288C23.1644 64.2893 23.1644 63.7498 23.1644 63.3002C30.6456 63.2103 38.1267 63.1204 45.6078 63.0305C46.3289 63.0305 46.9598 63.1204 47.5907 63.2103Z" fill="#415A87"/>
<path d="M50.2047 73.8205C49.8442 73.7306 49.3935 73.6407 49.0329 73.5508C48.4921 73.2811 48.0415 73.371 47.5908 73.8205C37.9465 73.8205 28.3923 73.8205 18.7479 73.8205C18.7479 73.281 18.7479 72.7416 18.7479 72.292C29.2936 72.292 39.7491 72.292 50.2948 72.292C50.2948 72.7416 50.2047 73.281 50.2047 73.8205Z" fill="#385381"/>
<path d="M18.7479 72.2018C18.7479 72.7413 18.7479 73.2808 18.7479 73.7304C15.9537 74.3598 14.3313 73.9102 14.3313 70.3136C14.4214 63.3002 14.2412 63.3002 21.3617 62.7607C21.3617 63.3901 21.4519 64.0196 21.4519 64.649C20.7308 64.7389 20.0097 64.8288 19.2887 64.8288C17.8465 64.9187 16.0438 64.559 16.3142 66.8069C16.5846 68.875 14.6918 71.9321 18.7479 72.2018Z" fill="#415A87"/>
<path d="M69.7638 65.6379C69.7638 66.4471 71.8368 68.8748 68.4118 67.616C67.5104 67.2563 65.2571 69.684 65.7077 65.8177C65.9781 63.0303 66.7893 63.9295 68.4118 63.5698C71.3862 62.7606 70.3046 64.1093 69.7638 65.6379Z" fill="#415A87"/>
<path d="M73.0987 38.6637C74.7211 41.8107 72.3776 40.462 71.0256 40.7317C69.0427 41.1813 68.2315 41.0914 69.4032 39.0234C69.8539 38.2141 66.9696 35.5167 70.6651 36.5957C71.7467 36.9553 74.9915 34.7974 73.0987 38.6637Z" fill="#415A87"/>
<path d="M3.78562 62.2214C3.78562 60.3331 4.14616 60.1533 6.48964 60.1533C7.03045 60.1533 7.66139 61.6819 7.75152 62.581C7.93179 63.66 9.10353 65.0087 6.48964 64.3793C4.95737 64.1096 1.98294 65.4583 3.78562 62.2214Z" fill="#415A87"/>
<path d="M13.1596 49.903C12.799 48.824 11.1766 46.666 14.151 48.0148C15.0524 48.4643 17.6663 45.7669 16.7649 49.0038C16.5846 49.8131 19.3788 52.7803 15.5932 51.971C14.782 51.7013 10.8161 54.129 13.1596 49.903Z" fill="#385381"/>
<path d="M61.9221 54.2187C61.8319 55.2977 63.905 56.7364 60.3898 56.6464C57.0548 56.5565 58.0463 55.028 57.866 53.5893C57.7759 52.6902 58.5871 52.4204 60.5701 52.3305C61.1109 52.3305 61.6517 51.7011 62.1925 52.3305C62.9135 53.0498 61.9221 53.5893 61.9221 54.2187Z" fill="#415A87"/>
<path d="M50.2046 73.8201C50.2046 73.2806 50.2046 72.7411 50.2947 72.2915C50.5651 72.2016 50.8355 72.1117 51.1059 72.0218C51.4665 72.1117 51.7369 72.2016 52.0974 72.2915C53.9001 73.4604 55.7028 73.7302 57.4153 72.1117L57.235 72.0218C57.866 71.4823 58.4068 70.9428 59.0377 70.4033C59.7588 73.1008 58.6772 74.2697 55.883 73.9999C54.0804 73.8201 52.0974 73.8201 50.2046 73.8201Z" fill="#415A87"/>
<path d="M59.1279 70.4033C58.4969 70.9428 57.9561 71.4823 57.3252 72.0218C57.3252 69.7739 57.3252 67.4361 57.4153 65.1883C59.5785 64.8286 57.6857 67.5261 59.1279 67.616C59.1279 68.5151 59.1279 69.4143 59.1279 70.4033Z" fill="#385381"/>
<path d="M0.721118 9.35102C0.54085 9.62077 0.270448 9.89051 0.0901801 10.0703C-0.0900879 9.53085 0.0901801 9.26111 0.721118 9.35102Z" fill="#415A87"/>
<path d="M47.5907 73.8199C48.0414 73.3703 48.492 73.2804 49.0328 73.5502C48.5822 73.6401 48.0414 73.73 47.5907 73.8199Z" fill="#415A87"/>
<path d="M39.6589 56.107C39.4786 52.96 39.6589 49.8129 38.8477 46.7558C38.2168 44.418 39.2082 42.35 40.8306 40.6416C48.492 32.0997 51.5566 21.8494 52.2777 10.6999C52.4579 7.91257 52.7283 5.03529 52.9086 2.24793C62.3727 1.79835 61.2911 1.25886 60.57 9.8907C59.6686 19.8713 57.3252 29.3123 50.475 37.045C49.6638 37.9442 48.9427 39.1131 47.9512 39.5626C41.8221 41.9903 42.2728 46.576 43.7149 51.5213C44.7064 55.1179 43.7149 56.9162 39.6589 56.107Z" fill="#92C4F6"/>
<path d="M45.6979 62.9402C45.6979 61.3218 45.6078 59.7932 45.6078 58.2647C47.2302 58.5344 49.6638 56.6462 50.2046 59.8831C50.475 61.7713 50.2948 63.5696 47.5907 63.21C46.9598 63.1201 46.3289 63.0302 45.6979 62.9402Z" fill="#92C4F6"/>
<path d="M42.1827 58.1749C41.9123 58.1749 41.6419 58.1749 41.3715 58.1749C41.6419 57.9951 41.9123 57.9951 42.1827 58.1749Z" fill="#92C4F6"/>
<path d="M33.0792 58.1749C32.8088 58.1749 32.5383 58.1749 32.2679 58.1749C32.5383 57.9951 32.8088 57.9951 33.0792 58.1749Z" fill="#92C4F6"/>
<path d="M51.106 72.0221C51.106 69.6843 51.106 67.4364 51.1961 65.0986C53.2692 65.0986 55.3423 65.1885 57.4153 65.1885C57.4153 67.4364 57.4153 69.7742 57.3252 72.0221L57.5055 72.112C55.7028 72.2019 53.9001 72.2019 52.1876 72.2918C51.827 72.112 51.4665 72.112 51.106 72.0221Z" fill="#92C4F6"/>
<path d="M52.0974 72.2013C53.9001 72.1114 55.7028 72.1114 57.4153 72.0215C55.7028 73.64 53.9902 73.4601 52.0974 72.2013Z" fill="#385381"/>
<path d="M45.067 31.6501C43.6248 32.1896 42.7235 31.74 42.0925 31.2005C38.7576 28.593 35.4226 28.3232 31.9074 31.0207C31.0962 31.6501 30.0146 32.4593 29.1132 31.74C28.2119 31.0207 28.6626 29.7619 29.0231 28.7728C30.4653 24.8165 29.2034 21.9393 25.9586 19.5116C25.2375 18.9721 23.9756 18.3427 24.5164 17.0839C24.877 16.0948 26.0487 16.2746 26.8599 16.2746C31.3666 16.3645 33.8904 14.0268 35.3325 9.98058C36.1437 7.55287 37.676 7.64279 38.4872 9.98058C39.9293 14.4763 42.8136 16.3645 47.4104 16.3645C48.4921 16.3645 50.6553 17.0839 49.0329 18.2528C43.8952 21.8493 43.3544 26.435 45.067 31.6501ZM42.0925 17.4435C38.4872 17.4435 39.028 13.2175 36.1437 11.5091C35.5128 16.6343 31.7271 17.6233 27.3106 18.0729C29.2034 20.7704 32.2679 22.0292 31.5469 25.2661C31.3666 26.435 30.8258 27.6039 31.9975 29.1325C35.1522 25.5359 38.7576 27.1543 43.715 29.4921C40.1997 24.0972 43.084 21.2199 45.6979 18.5225C44.5262 17.4435 43.3544 17.4435 42.0925 17.4435Z" fill="#385381"/>
<path d="M31.637 25.3564C33.8904 25.1766 35.693 22.7489 38.3069 24.2774C38.7576 24.5472 39.4787 23.9178 39.3885 23.2884C38.9379 20.6808 41.1912 19.422 42.1827 17.5338C43.3544 17.5338 44.6163 17.4439 45.788 18.6128C43.1742 21.4002 40.2899 24.1875 43.8051 29.5824C38.8477 27.2446 35.2424 25.6262 32.0877 29.2228C30.9159 27.6043 31.3666 26.5253 31.637 25.3564Z" fill="#92C4F6"/>
</g>
<defs>
<clipPath id="clip0">
<rect width="74" height="74" fill="white"/>
</clipPath>
</defs>
</svg>
