<svg xmlns="http://www.w3.org/2000/svg" viewBox="0 0 147 81"><path d="M39.588.016l-14.309 3.73-14.308 3.73-5.485 14.348L0 36.172l7.244-1.889-.69-.828a1.97 1.97 0 01-.21-2.219C12.75 19.441 22.083 11.072 34.039 5.934c.741-.32 1.558-.116 2.084.517l.69.828L39.587.016zm101.537 1.326c-.78 0-1.53.151-2.25.457a5.79 5.79 0 00-1.889 1.283c-.54.55-.975 1.191-1.304 1.924a5.521 5.521 0 00-.494 2.289v10.537c-3.06-1.65-6.388-2.473-9.987-2.473-2.939 0-5.728.595-8.367 1.786a23.269 23.269 0 00-6.973 4.81c-2.009 2.016-3.6 4.368-4.77 7.055-1.169 2.687-1.753 5.528-1.753 8.521 0 3.054.6 5.925 1.799 8.612 1.199 2.686 2.805 5.04 4.814 7.054a22.603 22.603 0 006.973 4.766 20.354 20.354 0 008.277 1.74c2.88 0 5.639-.597 8.278-1.787a23.282 23.282 0 006.97-4.81c2.008-2.015 3.6-4.366 4.77-7.053 1.17-2.688 1.754-5.53 1.754-8.522V7.387c0-1.77-.585-3.222-1.754-4.352-1.17-1.13-2.534-1.693-4.094-1.693zM34.736 7.717C23.16 12.692 14.152 20.757 7.941 32.189l6.305 7.588c6.24-11.396 15.19-19.534 26.797-24.472l-6.307-7.588zm45.414 6.89c-4.504 0-8.528 1.208-12.072 3.622-3.543 2.414-6.186 5.582-7.928 9.505a24.331 24.331 0 00-1.396 4.256 20.299 20.299 0 00-.494 4.528c0 1.569.163 3.077.494 4.525.33 1.448.796 2.868 1.396 4.256 1.742 3.863 4.385 7.016 7.928 9.46 3.544 2.445 7.568 3.667 12.072 3.667 1.743 0 3.394-.18 4.955-.543a23.936 23.936 0 004.416-1.54c.24-.12.481-.256.721-.407.24-.151.51-.286.81-.407 1.262 1.932 2.943 2.897 5.046 2.897 1.501 0 2.853-.572 4.054-1.719 1.201-1.147 1.801-2.536 1.801-4.166V36.518c0-2.777-.495-5.42-1.486-7.924-.991-2.505-2.343-4.737-4.055-6.7-1.712-1.96-3.752-3.576-6.125-4.843a20.942 20.942 0 00-7.613-2.354c-.421-.06-.827-.09-1.217-.09H80.15zm-36.632 1.327c-.213.279-.495.497-.834.642C31.522 21.331 22.93 29.153 16.93 40.123c-.28.511-.705.857-1.225 1.004a25.846 25.846 0 001.174 4.352 22.27 22.27 0 001.44 3.146l-.56.588-3.195 3.353 3.196 3.352 3.654 3.836 3.717-3.9.422-.438c.887.525 1.81.996 2.787 1.39 2.653 1.075 5.38 1.618 8.139 1.62 2.757.002 5.467-.511 8.082-1.535 2.615-1.025 4.871-2.613 6.785-4.694 1.471-1.6 2.738-3.277 3.75-5.013 1.01-1.736 1.732-3.646 1.834-5.707.064-1.295-.4-2.415-1.08-3.315-.68-.9-1.516-1.548-2.506-1.928a5.811 5.811 0 00-3.127-.287c-1.086.19-2.116.69-3.004 1.543a4.813 4.813 0 00-1.024 1.418c-.227.483-.434.991-.619 1.514a10.595 10.595 0 01-.777 1.67c-.33.583-.833 1.226-1.486 1.892-2.328 2.374-5.298 3.098-8.881 2.198l16.34-17.112c1.197-1.254 1.968-2.581 2.156-4.086.189-1.504-.262-2.83-1.336-3.959-1.99-2.088-4.315-3.66-6.943-4.685a23.066 23.066 0 00-1.125-.406zM80.06 26.377c1.32 0 2.598.271 3.83.814a10.529 10.529 0 015.449 5.477 9.525 9.525 0 01.812 3.85c0 1.448-.272 2.79-.812 4.027a10.42 10.42 0 01-2.162 3.215 9.738 9.738 0 01-3.198 2.127c-1.23.513-2.538.77-3.92.77a8.875 8.875 0 01-3.693-.815 11.125 11.125 0 01-3.197-2.172 10.68 10.68 0 01-2.254-3.215 9.296 9.296 0 01-.855-3.937c0-1.328.27-2.613.81-3.85a10.685 10.685 0 015.406-5.477 9.075 9.075 0 013.784-.814zm-44.88.39c1.044-.034 2.19.14 3.436.522l-1.707 1.787-1.555 1.63-8.093 8.474c-.58-2.094-.659-3.913-.242-5.43.415-1.516 1.234-2.923 2.433-4.184 1.157-1.216 2.488-2.059 3.961-2.511a6.754 6.754 0 011.768-.287zm90.02.503c1.32 0 2.578.26 3.778.779 1.199.519 2.263 1.236 3.193 2.152.93.916 1.666 2 2.205 3.252.539 1.252.81 2.612.81 4.078a9.652 9.652 0 01-.81 3.94 10.894 10.894 0 01-2.205 3.252 10.673 10.673 0 01-3.193 2.244c-1.2.55-2.458.826-3.778.826a9.501 9.501 0 01-3.914-.826 10.89 10.89 0 01-3.238-2.197 10.148 10.148 0 01-2.205-3.254 9.974 9.974 0 01-.81-3.985 9.76 9.76 0 01.81-3.894 10.704 10.704 0 012.205-3.3 10.499 10.499 0 013.238-2.243 9.5 9.5 0 013.914-.824z" fill-rule="evenodd" fill="#1bbc9b"/><path d="M126.841 75.581s.139.634.259.996l.581 1.718h-1.717l.582-1.718c.129-.362.277-.996.277-.996zm1.69 5.31h1.228l-2.308-6.422h-1.247l-2.309 6.422h1.23l.553-1.646h2.3zm-16.447 0h1.192l.276-3.591c.028-.425.01-1.004.01-1.004h.018s.203.634.36 1.004l1.053 2.488h1.044l1.061-2.488c.158-.37.351-.995.351-.995h.018s-.018.57.01.995l.277 3.591h1.182l-.527-6.422h-1.274l-1.284 3.175c-.148.38-.323.94-.323.94h-.018s-.186-.56-.333-.94l-1.283-3.175h-1.275zm-9.004-3.41v-2.008h.906c.932 0 1.2.38 1.2.995 0 .642-.397 1.013-1.035 1.013zm-1.191 3.41h1.191v-2.397h1.145l1.303 2.397h1.33l-1.349-2.397c-.13-.226-.222-.316-.222-.316v-.018c.693-.272 1.109-.986 1.109-1.755 0-.85-.416-1.465-1.072-1.755-.286-.126-.61-.18-1.32-.18h-2.115zm-11.082-3.256c0-1.266.96-2.207 2.16-2.207 1.202 0 2.162.941 2.162 2.207 0 1.32-.96 2.298-2.161 2.298-1.2 0-2.161-.978-2.161-2.298zm-1.228 0c0 1.89 1.46 3.365 3.389 3.365 1.93 0 3.39-1.474 3.39-3.365 0-1.836-1.46-3.274-3.39-3.274-1.93 0-3.39 1.438-3.39 3.274zm-8.754 3.256h1.19v-2.596h2.17v-1.004h-2.17v-1.818h2.577v-1.004h-3.767zm-8.082-5.31s.139.634.26.996l.58 1.718h-1.717l.582-1.718c.13-.362.277-.996.277-.996zm1.69 5.31h1.228l-2.308-6.422h-1.246l-2.31 6.422h1.229l.554-1.646h2.3zm-11.968 0h1.192v-5.418h2.151v-1.004h-5.495v1.004h2.152zm-9.06-5.31s.139.634.26.996l.58 1.718h-1.717l.582-1.718c.129-.362.277-.996.277-.996zm1.69 5.31h1.229l-2.309-6.422H52.77l-2.31 6.422h1.229l.554-1.646h2.3zm-13.325 0h4.026v-1.004H42.96V74.47H41.77zm-8.801-3.229v-2.19h1.135c.675 0 1.081.426 1.081 1.087 0 .67-.406 1.103-1.099 1.103zm-1.191 3.23h1.19v-2.217h1.34c1.228 0 2.087-.868 2.087-2.116 0-1.248-.859-2.09-2.087-2.09h-2.53z" fill="#999" fill-rule="evenodd"/></svg>